<?xml version="1.0" encoding="utf-8"?>
<!-- Svg Vector Icons : http://www.onlinewebfonts.com/icon -->
<!DOCTYPE svg PUBLIC "-//W3C//DTD SVG 1.1//EN" "http://www.w3.org/Graphics/SVG/1.1/DTD/svg11.dtd">
<svg version="1.1" xmlns="http://www.w3.org/2000/svg" xmlns:xlink="http://www.w3.org/1999/xlink" x="0px" y="0px" viewBox="0 0 256 256" enable-background="new 0 0 256 256" xml:space="preserve">
<metadata> Svg Vector Icons : http://www.onlinewebfonts.com/icon </metadata>
<g><g><g><path fill="#000000" d="M96.1,10.7c-28.2,3.5-53.8,19.2-69.4,42.6C9.7,78.7,5.5,109.6,15,138.5c10.4,31.8,36.7,56.3,69.2,64.5c15.2,3.8,32.5,3.8,47.7,0c9.5-2.4,20.4-7,28-11.9l3.5-2.2l27.7,27.7c19.3,19.3,28.2,28,29.6,28.6c2.4,1.1,5.7,1.1,8.1,0c1.1-0.5,4.8-3.8,9.1-8.2c7.4-7.5,8.3-8.8,8.3-12.3c0-4,0.4-3.6-29.1-33.1l-28-28.1l2.7-4.5c23.6-38.6,17.7-88.1-14.3-120.1c-16-16-36.7-25.9-59.4-28.3C111.8,9.8,102.3,9.9,96.1,10.7z M125.9,18.7c24.2,5.1,44.8,19.1,58,39.3c21,32.2,19.8,73.3-3.1,104.2c-3.2,4.4-11,12.5-15.5,16.2c-21.2,17.4-50,24.2-76.8,18.3C46.7,187.4,17,150.6,17,108c0-36.4,21.7-69.3,55.1-83.6c8-3.5,15.8-5.6,26-7c0.8-0.1,6-0.1,11.7,0C118.7,17.5,120.9,17.7,125.9,18.7z M211.8,196.4c21.3,21.3,27,27.3,27,28.2c0,0.9-1.6,2.8-6.5,7.7c-5.5,5.5-6.8,6.6-8,6.6c-1.2,0-4.8-3.3-28.5-27.1l-27.1-27.1l1.6-1.3c0.9-0.7,4.4-4.1,7.8-7.6c3.4-3.5,6.3-6.3,6.4-6.3C184.7,169.4,197,181.5,211.8,196.4z"/><path fill="#000000" d="M59.4,52.4c-5.7,1.1-10.9,5.2-13.7,10.8l-1.8,3.6V108v41.2l1.6,3.3c2.1,4.2,5.4,7.5,9.5,9.4l3.2,1.5H108h49.7l3.2-1.6c4.1-2,7.4-5.4,9.5-9.5l1.6-3.2V108V66.8l-1.8-3.6c-2.9-5.8-7.9-9.7-14.1-10.9C152.9,51.7,62.5,51.7,59.4,52.4z M158.4,60.5c2.9,1.7,4.5,3.4,5.8,6.3l1.1,2.4V108v38.8l-1.4,2.8c-1.7,3.3-4.4,5.6-8,6.7c-3.7,1.1-92.2,1.1-96,0c-3.5-1-6.2-3.3-7.9-6.7l-1.4-2.8l0.1-39c0.1-38,0.1-39.1,1.1-41.2c1-2.4,2.3-3.9,4.4-5.4c3.2-2.3,1.9-2.2,52.4-2.1l47.6,0.1L158.4,60.5z"/><path fill="#000000" d="M82.2,71.3c-1.9,1-3.3,2.8-4.1,5.2c-0.8,2.1-0.8,59.9-0.1,62.5c1.4,5,6.8,7.4,11.7,5.4c2-0.8,48.1-27.4,51-29.4c5-3.5,5.7-9.9,1.4-13.6C140.5,100.1,94,73,90.3,71.3C87.7,70.2,84.4,70.2,82.2,71.3z M111.9,91.7c13.4,7.7,24.8,14.5,25.3,14.9c0.7,0.7,0.8,1.1,0.4,1.7c-0.3,0.4-11.7,7.3-25.5,15.2c-17.6,10.2-25.3,14.4-26.1,14.3l-1.2-0.1L84.7,108c0-21.8,0-29.8,0.4-30.4c0.3-0.4,1-0.5,1.5-0.3C87.2,77.5,98.5,84,111.9,91.7z"/></g></g></g>
</svg>